<svg id="logo" data-name="logo" 
    xmlns="http://www.w3.org/2000/svg" viewBox="0 0 48 42">
    <defs>
        <style>.cls-1{fill:#5fbd5b;}.cls-2{fill:#FFF;}</style>
    </defs>
    <title>logo2</title>
    <polygon class="cls-1" points="23.95 0 20.85 5 27.08 5 23.95 0"/>
    <polygon class="cls-1" points="20.34 5.83 16.76 11.49 20.85 11.49 21.37 10.55 26.51 10.55 27.08 11.49 31.07 11.49 27.55 5.83 20.34 5.83"/>
    <polygon class="cls-1" points="16.13 12.31 11.98 19.35 17.12 19.35 18.05 17.82 29.88 17.82 30.82 19.35 35.95 19.35 31.75 12.31 16.13 12.31"/>
    <polygon class="cls-2" points="11.97 22.65 8.87 27.65 15.1 27.65 11.97 22.65"/>
    <polygon class="cls-2" points="8.35 28.48 4.77 34.14 8.87 34.14 9.39 33.2 14.53 33.2 15.1 34.14 19.09 34.14 15.56 28.48 8.35 28.48"/>
    <polygon class="cls-2" points="4.15 34.96 0 42 5.14 42 6.07 40.47 17.9 40.47 18.83 42 23.97 42 19.77 34.96 4.15 34.96"/>
    <polygon class="cls-2" points="36 22.65 32.9 27.65 39.13 27.65 36 22.65"/>
    <polygon class="cls-2" points="32.38 28.48 28.8 34.14 32.9 34.14 33.42 33.2 38.56 33.2 39.13 34.14 43.12 34.14 39.6 28.48 32.38 28.48"/>
    <polygon class="cls-2" points="28.18 34.96 24.03 42 29.17 42 30.1 40.47 41.93 40.47 42.86 42 48 42 43.8 34.96 28.18 34.96"/>
</svg>